<svg xmlns="http://www.w3.org/2000/svg" viewBox="0 0 120 120" fill="none">
  <defs>
    <linearGradient id="logoGradient" x1="0%" y1="0%" x2="100%" y2="100%">
      <stop offset="0%" style="stop-color:#3B82F6"/>
      <stop offset="100%" style="stop-color:#9333EA"/>
    </linearGradient>
  </defs>
  <!-- Background rounded square -->
  <rect width="120" height="120" rx="24" fill="url(#logoGradient)"/>
  <!-- Letter R -->
  <path d="M35 25h30c11 0 20 9 20 20s-9 20-20 20H55l25 30H65L42 65v30H35V25zm7 7v26h23c7.2 0 13-5.8 13-13s-5.8-13-13-13H42z" fill="white"/>
  <!-- Broom accent (stylized sweep) -->
  <path d="M75 85c5-3 10-8 12-15" stroke="white" stroke-width="3" stroke-linecap="round" opacity="0.7"/>
  <path d="M80 90c4-2 8-6 10-12" stroke="white" stroke-width="2" stroke-linecap="round" opacity="0.5"/>
</svg>
